<svg width="1440" height="300" viewBox="0 0 1440 300" fill="none" xmlns="http://www.w3.org/2000/svg">
<path d="M1440 0H0V300H1440V0Z" fill="url(#paint0_radial_210_1834)"/>
<mask id="mask0_210_1834" style="mask-type:luminance" maskUnits="userSpaceOnUse" x="0" y="0" width="1440" height="300">
<path d="M1440 0H0V300H1440V0Z" fill="white"/>
</mask>
<g mask="url(#mask0_210_1834)">
<path style="mix-blend-mode:screen" opacity="0.2" d="M58.0601 -97.8201C58.0601 -97.8201 355.24 87.5499 926.07 92.4799C1496.91 97.4099 1867.94 -59.0601 1867.94 -59.0601V-156.33H58.0601V-97.8301V-97.8201Z" fill="url(#paint1_linear_210_1834)"/>
<path style="mix-blend-mode:screen" opacity="0.5" d="M33.46 -219.86C33.46 -219.86 379.05 29.6299 1042.88 36.2699C1706.71 42.9099 2138.19 -167.68 2138.19 -167.68V-298.6H33.46V-219.86Z" stroke="url(#paint2_linear_210_1834)" stroke-width="2" stroke-miterlimit="10"/>
<path style="mix-blend-mode:screen" opacity="0.3" d="M336.72 -172.59C336.72 -172.59 640.36 46.62 1223.62 52.45C1806.88 58.2799 2185.98 -126.75 2185.98 -126.75V-241.77H336.72V-172.59Z" fill="url(#paint3_linear_210_1834)"/>
<path style="mix-blend-mode:screen" opacity="0.2" d="M-807.97 414.06C-807.97 414.06 -462.38 175.25 201.45 168.9C865.28 162.54 1296.76 364.12 1296.76 364.12V489.43H-807.97V414.07V414.06Z" fill="url(#paint4_linear_210_1834)"/>
<path style="mix-blend-mode:screen" opacity="0.3" d="M-464.32 485.53C-464.32 485.53 -148.08 267 459.38 261.19C1066.84 255.37 1461.68 439.83 1461.68 439.83V554.49H-464.32V485.52V485.53Z" fill="url(#paint5_linear_210_1834)"/>
<path style="mix-blend-mode:screen" opacity="0.5" d="M-584.42 434.67C-584.42 434.67 -268.18 216.14 339.28 210.33C946.74 204.51 1341.58 388.97 1341.58 388.97V503.63H-584.42V434.66V434.67Z" stroke="url(#paint6_linear_210_1834)" stroke-width="2" stroke-miterlimit="10"/>
</g>
<path style="mix-blend-mode:screen" opacity="0.6" d="M103.98 31.1499C103.98 35.1299 100.75 38.3599 96.77 38.3599C92.79 38.3599 89.5601 35.1299 89.5601 31.1499C89.5601 27.1699 92.79 23.9399 96.77 23.9399C100.75 23.9399 103.98 27.1699 103.98 31.1499ZM75 23.9399C71.02 23.9399 67.79 27.1699 67.79 31.1499C67.79 35.1299 71.02 38.3599 75 38.3599C78.98 38.3599 82.21 35.1299 82.21 31.1499C82.21 27.1699 78.98 23.9399 75 23.9399ZM53.23 23.9399C49.25 23.9399 46.02 27.1699 46.02 31.1499C46.02 35.1299 49.25 38.3599 53.23 38.3599C57.21 38.3599 60.44 35.1299 60.44 31.1499C60.44 27.1699 57.21 23.9399 53.23 23.9399ZM140.32 45.7899C136.34 45.7899 133.11 49.0199 133.11 52.9999C133.11 56.9799 136.34 60.2099 140.32 60.2099C144.3 60.2099 147.53 56.9799 147.53 52.9999C147.53 49.0199 144.3 45.7899 140.32 45.7899ZM118.55 45.7899C114.57 45.7899 111.34 49.0199 111.34 52.9999C111.34 56.9799 114.57 60.2099 118.55 60.2099C122.53 60.2099 125.76 56.9799 125.76 52.9999C125.76 49.0199 122.53 45.7899 118.55 45.7899ZM96.78 45.7899C92.8 45.7899 89.57 49.0199 89.57 52.9999C89.57 56.9799 92.8 60.2099 96.78 60.2099C100.76 60.2099 103.99 56.9799 103.99 52.9999C103.99 49.0199 100.76 45.7899 96.78 45.7899ZM75.01 45.7899C71.03 45.7899 67.8 49.0199 67.8 52.9999C67.8 56.9799 71.03 60.2099 75.01 60.2099C78.99 60.2099 82.22 56.9799 82.22 52.9999C82.22 49.0199 78.99 45.7899 75.01 45.7899ZM53.2401 45.7899C49.2601 45.7899 46.03 49.0199 46.03 52.9999C46.03 56.9799 49.2601 60.2099 53.2401 60.2099C57.2201 60.2099 60.45 56.9799 60.45 52.9999C60.45 49.0199 57.2201 45.7899 53.2401 45.7899ZM75.01 67.6399C71.03 67.6399 67.8 70.8699 67.8 74.8499C67.8 78.8299 71.03 82.0599 75.01 82.0599C78.99 82.0599 82.22 78.8299 82.22 74.8499C82.22 70.8699 78.99 67.6399 75.01 67.6399ZM53.2401 67.6399C49.2601 67.6399 46.03 70.8699 46.03 74.8499C46.03 78.8299 49.2601 82.0599 53.2401 82.0599C57.2201 82.0599 60.45 78.8299 60.45 74.8499C60.45 70.8699 57.2201 67.6399 53.2401 67.6399Z" fill="url(#paint7_linear_210_1834)"/>
<path style="mix-blend-mode:screen" opacity="0.5" d="M1408.81 226.72C1408.81 230.91 1405.41 234.31 1401.22 234.31C1397.03 234.31 1393.63 230.91 1393.63 226.72C1393.63 222.53 1397.03 219.13 1401.22 219.13C1405.41 219.13 1408.81 222.53 1408.81 226.72ZM1401.22 242.05C1397.03 242.05 1393.63 245.45 1393.63 249.64C1393.63 253.83 1397.03 257.23 1401.22 257.23C1405.41 257.23 1408.81 253.83 1408.81 249.64C1408.81 245.45 1405.41 242.05 1401.22 242.05ZM1401.22 264.97C1397.03 264.97 1393.63 268.37 1393.63 272.56C1393.63 276.75 1397.03 280.15 1401.22 280.15C1405.41 280.15 1408.81 276.75 1408.81 272.56C1408.81 268.37 1405.41 264.97 1401.22 264.97ZM1378.22 173.3C1374.03 173.3 1370.63 176.7 1370.63 180.89C1370.63 185.08 1374.03 188.48 1378.22 188.48C1382.41 188.48 1385.81 185.08 1385.81 180.89C1385.81 176.7 1382.41 173.3 1378.22 173.3ZM1378.22 196.22C1374.03 196.22 1370.63 199.62 1370.63 203.81C1370.63 208 1374.03 211.4 1378.22 211.4C1382.41 211.4 1385.81 208 1385.81 203.81C1385.81 199.62 1382.41 196.22 1378.22 196.22ZM1378.22 219.14C1374.03 219.14 1370.63 222.54 1370.63 226.73C1370.63 230.92 1374.03 234.32 1378.22 234.32C1382.41 234.32 1385.81 230.92 1385.81 226.73C1385.81 222.54 1382.41 219.14 1378.22 219.14ZM1378.22 242.06C1374.03 242.06 1370.63 245.46 1370.63 249.65C1370.63 253.84 1374.03 257.24 1378.22 257.24C1382.41 257.24 1385.81 253.84 1385.81 249.65C1385.81 245.46 1382.41 242.06 1378.22 242.06ZM1378.22 264.98C1374.03 264.98 1370.63 268.38 1370.63 272.57C1370.63 276.76 1374.03 280.16 1378.22 280.16C1382.41 280.16 1385.81 276.76 1385.81 272.57C1385.81 268.38 1382.41 264.98 1378.22 264.98ZM1355.22 242.06C1351.03 242.06 1347.63 245.46 1347.63 249.65C1347.63 253.84 1351.03 257.24 1355.22 257.24C1359.41 257.24 1362.81 253.84 1362.81 249.65C1362.81 245.46 1359.41 242.06 1355.22 242.06ZM1355.22 264.98C1351.03 264.98 1347.63 268.38 1347.63 272.57C1347.63 276.76 1351.03 280.16 1355.22 280.16C1359.41 280.16 1362.81 276.76 1362.81 272.57C1362.81 268.38 1359.41 264.98 1355.22 264.98Z" fill="url(#paint8_linear_210_1834)"/>
<defs>
<radialGradient id="paint0_radial_210_1834" cx="0" cy="0" r="1" gradientUnits="userSpaceOnUse" gradientTransform="translate(574.548 1.89425) scale(1160.14 434.233)">
<stop stop-color="#5E76F7"/>
<stop offset="1" stop-color="#425FF6"/>
</radialGradient>
<linearGradient id="paint1_linear_210_1834" x1="928.49" y1="141.42" x2="961.52" y2="-96.9701" gradientUnits="userSpaceOnUse">
<stop stop-color="#B9FDFE" stop-opacity="0.6"/>
<stop offset="1" stop-color="#54A4F8" stop-opacity="0"/>
</linearGradient>
<linearGradient id="paint2_linear_210_1834" x1="1045.36" y1="58.6799" x2="1114.69" y2="-441.57" gradientUnits="userSpaceOnUse">
<stop stop-color="#00B2FB"/>
<stop offset="1" stop-color="#0088FA" stop-opacity="0"/>
</linearGradient>
<linearGradient id="paint3_linear_210_1834" x1="1221.79" y1="101.22" x2="1258.58" y2="-164.28" gradientUnits="userSpaceOnUse">
<stop stop-color="#00B2FB"/>
<stop offset="1" stop-color="#0088FA" stop-opacity="0"/>
</linearGradient>
<linearGradient id="paint4_linear_210_1834" x1="200.92" y1="113.07" x2="241.7" y2="407.32" gradientUnits="userSpaceOnUse">
<stop stop-color="#B9FDFE" stop-opacity="0.6"/>
<stop offset="1" stop-color="#54A4F8" stop-opacity="0"/>
</linearGradient>
<linearGradient id="paint5_linear_210_1834" x1="458.9" y1="210.09" x2="496.21" y2="479.36" gradientUnits="userSpaceOnUse">
<stop stop-color="#00B2FB"/>
<stop offset="1" stop-color="#0088FA" stop-opacity="0"/>
</linearGradient>
<linearGradient id="paint6_linear_210_1834" x1="-585.42" y1="356.92" x2="1342.58" y2="356.92" gradientUnits="userSpaceOnUse">
<stop stop-color="#0088FA" stop-opacity="0"/>
<stop offset="1" stop-color="#00B2FB"/>
</linearGradient>
<linearGradient id="paint7_linear_210_1834" x1="46.03" y1="52.9999" x2="147.53" y2="52.9999" gradientUnits="userSpaceOnUse">
<stop stop-color="#00B2FB"/>
<stop offset="1" stop-color="#0088FA" stop-opacity="0"/>
</linearGradient>
<linearGradient id="paint8_linear_210_1834" x1="1378.23" y1="280.15" x2="1378.23" y2="173.3" gradientUnits="userSpaceOnUse">
<stop stop-color="#00B2FB"/>
<stop offset="1" stop-color="#0088FA" stop-opacity="0"/>
</linearGradient>
</defs>
</svg>
