<svg width="106" height="40" viewBox="0 0 106 40" fill="none" xmlns="http://www.w3.org/2000/svg">
<rect y="0.5" width="106" height="39" rx="19.5" fill="#01CBCB"/>
<path d="M21.736 21.796H36.264V22.836H21.736V21.796ZM32.968 20.628L34.136 20.948C32.84 25.588 29.544 27.268 22.712 27.764C22.632 27.412 22.424 26.964 22.232 26.676C28.792 26.324 31.8 24.82 32.968 20.628ZM21.912 16.356H36.056V17.396H21.912V16.356ZM28.36 14.212H29.56V20.58H28.36V14.212ZM27.768 16.596L28.744 17.028C27.272 18.804 24.648 20.34 22.296 21.092C22.136 20.804 21.8 20.372 21.56 20.148C23.864 19.508 26.456 18.132 27.768 16.596ZM33.56 13.092L34.44 13.956C31.608 14.596 27.032 14.916 23.288 14.996C23.256 14.724 23.144 14.308 23.032 14.052C26.696 13.956 31.192 13.62 33.56 13.092ZM24.056 24.772L25 23.972C29.16 24.788 33.448 25.908 36.088 26.852L34.984 27.716C32.536 26.772 28.456 25.668 24.056 24.772ZM24.056 24.772C25.208 23.572 26.696 21.652 27.528 20.1L28.728 20.404C27.896 21.956 26.488 23.748 25.512 24.772H24.056ZM30.056 18.196L30.632 17.428C32.552 18.164 35.16 19.316 36.536 20.068L35.944 20.964C34.632 20.196 32.024 18.98 30.056 18.196ZM46.584 15.092H47.768V25.636C47.768 26.324 47.88 26.452 48.472 26.452C48.76 26.452 50.2 26.452 50.552 26.452C51.128 26.452 51.208 25.972 51.272 23.892C51.56 24.116 52.04 24.34 52.392 24.42C52.248 26.82 51.944 27.604 50.632 27.604C50.328 27.604 48.616 27.604 48.328 27.604C46.952 27.604 46.584 27.172 46.584 25.62V15.092ZM50.52 13.412L51.56 14.324C49.672 15.172 46.808 15.812 44.312 16.228C44.248 15.94 44.072 15.508 43.928 15.252C46.312 14.836 49.048 14.148 50.52 13.412ZM38.232 17.908H43.176V18.868H38.232V17.908ZM38.232 20.004H43.336V20.964H38.232V20.004ZM37.576 15.78H43.912V16.788H37.576V15.78ZM38.744 22.148H43.256V26.82H38.744V25.812H42.072V23.156H38.744V22.148ZM38.248 22.148H39.416V27.572H38.248V22.148ZM39.352 13.476L40.392 13.028C40.888 13.668 41.416 14.516 41.656 15.076L40.552 15.62C40.328 15.044 39.8 14.148 39.352 13.476ZM43.736 20.02H52.248V21.092H43.736V20.02ZM58.168 18.564L68.088 17.316L68.264 18.452L58.344 19.7L58.168 18.564ZM64.424 13.972L65.304 13.396C66.264 14.164 67.4 15.252 67.944 15.988L67.016 16.628C66.504 15.908 65.368 14.772 64.424 13.972ZM57.992 13.236L59.128 13.604C57.928 16.404 56.024 19.156 54.024 20.948C53.896 20.66 53.544 20.052 53.32 19.78C55.176 18.228 56.936 15.764 57.992 13.236ZM56.184 17.492L57.4 16.292V16.308V27.764H56.184V17.492ZM61.752 13.3H62.968C63.192 20.484 64.296 26.132 66.712 26.356C67.16 26.388 67.432 25.444 67.592 23.572C67.832 23.812 68.36 24.116 68.584 24.212C68.248 26.996 67.592 27.812 66.76 27.78C63.16 27.524 62.104 21.476 61.752 13.3ZM79.336 14.756V16.42H82.088V14.756H79.336ZM75.608 14.756V16.42H78.296V14.756H75.608ZM71.976 14.756V16.42H74.584V14.756H71.976ZM70.856 13.812H83.256V17.38H70.856V13.812ZM73 21.14V22.324H81.096V21.14H73ZM73 23.14V24.356H81.096V23.14H73ZM73 19.14V20.34H81.096V19.14H73ZM71.8 18.292H82.344V25.204H71.8V18.292ZM78.328 26.02L79.272 25.38C81.08 25.908 83.064 26.628 84.28 27.172L83.016 27.812C81.96 27.3 80.152 26.596 78.328 26.02ZM74.568 25.348L75.656 25.844C74.344 26.644 72.296 27.396 70.68 27.828C70.488 27.588 70.056 27.14 69.784 26.932C71.464 26.58 73.4 25.988 74.568 25.348Z" fill="white"/>
</svg>
